<svg xmlns="http://www.w3.org/2000/svg" viewBox="0 0 356.22 245.98"><defs><style>.cls-1{fill:#26486b;}</style></defs><g id="Layer_2" data-name="Layer 2"><g id="Layer_1-2" data-name="Layer 1"><path class="cls-1" d="M280.47,103.14v5.24q0,35.43,0,70.85c0,12.85-8.36,21.25-21.15,21.27-33.12,0-66.24.08-99.36-.07-4,0-5.23,1.06-5,5a120.16,120.16,0,0,1,0,14.7c-.2,3.64,1.22,4.68,4.65,4.49a64.54,64.54,0,0,1,10.68.19c10.62,1.13,19.25,11.12,18.23,21.19H92.13c-1.77-9.48,7.3-20.1,18.21-21.22a73.83,73.83,0,0,1,11.13-.18c3.18.15,4.13-1.09,4-4.15-.2-5.19-.27-10.4,0-15.59.21-3.67-1.26-4.41-4.64-4.4-32.67.12-65.34.07-98,.08C7.94,200.52,0,192.63,0,177.77V29.4C0,14.46,7.85,6.62,22.82,6.61H258.07c14.31,0,22.36,8.05,22.4,22.32a14.66,14.66,0,0,0,0,3.11C284,47.82,274.71,57.11,263,65.86c0-7.31,0-14.34,0-21.37,0-7.63-3.38-13.54-9.85-17.34-2.71-1.59-6.07-2.17-9.21-2.92A20.86,20.86,0,0,0,239,24.1H40.75C25.32,24.09,17.49,32,17.49,47.4q0,56.58,0,113.17c0,14.29,8.09,22.43,22.28,22.43,66.68,0,133.37-.19,200,.18,14.29.07,24-9.69,23.29-23.53-.62-12-.25-24.05,0-36.07a10,10,0,0,1,2.48-6.13C270.15,112.63,275.13,108.2,280.47,103.14Z"/><path class="cls-1" d="M82.47,103.6q0-27.82,0-55.67c0-7.67,2.07-9.7,9.84-9.7h95.31c8.5,0,10.28,1.76,10.29,10.11,0,26.41,0,52.83,0,79.24a8.7,8.7,0,0,1-3.16,7.3c-4.2,3.73-8.46,7.62-11.7,12.14-2.41,3.36-3.5,7.75-4.75,11.82-3.09,10.1-3,10.13-13.44,10.13H92.76c-8.45,0-10.32-1.87-10.31-10.17q0-27.6,0-55.21Zm57.3-19.06v0c9.65,0,19.3,0,28.95,0,13.67,0,14.32-.71,14.18-14.38-.07-7.22-2.34-9.47-9.68-9.48q-32.29,0-64.59,0c-9.38,0-11,1.68-11,11.24,0,1.34,0,2.67,0,4,.1,6.11,2.5,8.57,8.72,8.6C117.5,84.58,128.64,84.54,139.77,84.54Zm.44,13.78q-19.8,0-39.6,0c-1.32,0-2.93-.24-3.89.4a5.61,5.61,0,0,0-2.42,3.64c-.06,1,1.33,2.51,2.44,3.13s2.59.43,3.92.44q39.14,0,78.29,0c1.48,0,3.16.27,4.38-.33s2.91-2.22,2.81-3.24c-.14-1.36-1.57-2.92-2.86-3.74-1-.62-2.59-.26-3.93-.26Zm0,43v-.19c13.49,0,27-.06,40.47,0,3,0,5.61-.17,5.64-3.85s-2.86-3.62-5.43-3.64c-6.81,0-13.63,0-20.44,0-20.31,0-40.62,0-60.92.16-1.72,0-4.2,1-5,2.35-1.7,2.86.43,5.1,4.73,5.12C112.89,141.38,126.53,141.34,140.18,141.34Z"/><path class="cls-1" d="M194,147.55,323.2,18.15l14.23,14.78L208.07,162.05C203.78,157.65,198.74,152.48,194,147.55Z"/><path class="cls-1" d="M344.05,27.71c1.42,1.73,2.5,2.93,3.44,4.22,3.55,4.92,3.47,10.72-.79,15q-20.61,21-41.61,41.51c-1.12,1.1-4.44,1.53-5.6.69-2.26-1.64-.93-3.88.82-5.63Q319.71,64.2,339,44.83c5-5,5.07-6,.37-11.68l5.06-5.48-16.94-15.6c3.82-3.52,6.89-6.52,10.14-9.31a11.19,11.19,0,0,1,15,.26,11.05,11.05,0,0,1,.9,15.29A60.07,60.07,0,0,1,349,23.14C347.4,24.68,345.75,26.14,344.05,27.71Z"/><path class="cls-1" d="M201.58,168.78l-20,5.87c2.12-7.32,4-13.86,5.94-20.46Z"/></g></g></svg>