<svg xmlns="http://www.w3.org/2000/svg" viewBox="0 0 260.27 218.74"><defs><style>.cls-1{fill:#26486b;}</style></defs><g id="Layer_2" data-name="Layer 2"><g id="Layer_1-2" data-name="Layer 1"><path class="cls-1" d="M218.83,17.35h5.63c6.49,0,13,0,19.45,0,9.76.06,16.35,6.67,16.35,16.4q0,79.16,0,158.32c0,12.79-8,23.15-20.12,26a28.37,28.37,0,0,1-6.17.67q-103.84,0-207.71,0A25.93,25.93,0,0,1,0,192.61Q0,99.55,0,6.48c0-2,.11-4.07,1.93-5.21A8.24,8.24,0,0,1,6.08.06Q61,0,116,0H212c4.8,0,6.58,1.77,6.59,6.52,0,3.38,0,6.75,0,10.12A4.76,4.76,0,0,0,218.83,17.35Zm-5.57,191c-.27-.49-.36-.71-.5-.9a28,28,0,0,1-4.58-16.19q.06-89,0-177.94V10.56H10.45v3.25c0,59.25.09,118.5-.09,177.75a16.49,16.49,0,0,0,16.8,16.85q91.89-.22,183.77-.09ZM221,197.94c2.57,8.06,10.35,12.14,18,9.69,6.72-2.17,10.87-8.08,10.87-15.57V34c0-.46,0-.91,0-1.36A5.16,5.16,0,0,0,239.58,32a16.49,16.49,0,0,0-.17,2.9V191.21c0,5-1.72,6.73-6.79,6.73Zm-2.2-170.12V187.37h10.28v-2.48q0-73.72,0-147.43c0-3.26-.22-6.5,1.89-9.31.05-.06-.06-.24-.08-.33Z"/><path class="cls-1" d="M27.76,110.92V63.08c0-4.9,1.76-6.65,6.69-6.65h59.7c4.65,0,6.5,1.83,6.5,6.44q0,48.24,0,96.47c0,4.61-1.84,6.44-6.49,6.44H34.08c-4.39,0-6.31-1.88-6.31-6.24V110.92Zm62.38,44.34V67H38.28v88.25Z"/><path class="cls-1" d="M109.33,38.17H33.67c-3.79,0-6.3-2.55-5.83-5.87a5.2,5.2,0,0,1,4.84-4.53c.52-.05,1,0,1.56,0H184.38a10.5,10.5,0,0,1,2.69.26,5.07,5.07,0,0,1,3.76,5.43,5.21,5.21,0,0,1-4.68,4.7c-.51.05-1,0-1.55,0Z"/><path class="cls-1" d="M109.32,180.57q37.73,0,75.46,0c2.31,0,4.23.61,5.41,2.71a5.2,5.2,0,0,1-4.06,7.7,14.61,14.61,0,0,1-1.75,0H35c-.59,0-1.17,0-1.75,0-3.24-.08-5.56-2.34-5.5-5.32a5.22,5.22,0,0,1,5.51-5.09c9.85,0,19.7,0,29.55,0Z"/><path class="cls-1" d="M150.75,89.11H116.54a5,5,0,0,1-5.06-3.24c-.83-2-.62-4.17,1.13-5.5a8.2,8.2,0,0,1,4.56-1.62c12-.12,24.1-.07,36.15-.07q15.84,0,31.68,0c4.09,0,6.64,3.06,5.63,6.68-.65,2.34-2.66,3.73-5.48,3.74Z"/><path class="cls-1" d="M150.92,140.05h-34c-2.94,0-5-1.42-5.63-3.81-.93-3.57,1.57-6.59,5.53-6.61,9.2,0,18.4,0,27.6,0q20.31,0,40.62,0c4,0,6.51,2.92,5.64,6.51-.59,2.46-2.62,3.91-5.54,3.91Z"/><path class="cls-1" d="M150.94,104.19q16.73,0,33.43,0a10.42,10.42,0,0,1,3.06.32,5,5,0,0,1,3.36,5.5,5,5,0,0,1-4.83,4.48c-4.4.09-8.81,0-13.22,0q-27.78,0-55.58,0a8.84,8.84,0,0,1-2.67-.31,5.16,5.16,0,0,1,1.28-10c.71-.06,1.42,0,2.14,0Z"/><path class="cls-1" d="M150.8,165.48q-17.1,0-34.2,0c-3.29,0-5.55-2.21-5.51-5.23a5.07,5.07,0,0,1,4.48-5,10.19,10.19,0,0,1,1.35-.08q34,0,68,0c2.49,0,4.46.81,5.49,3.2,1.51,3.52-1,7.15-5,7.16C173.86,165.5,162.33,165.48,150.8,165.48Z"/><path class="cls-1" d="M151,53.27c11.47,0,22.94,0,34.4,0,3.61,0,6,2.72,5.41,6a5,5,0,0,1-4.42,4.25,18.09,18.09,0,0,1-2.33.08q-33.13,0-66.27,0a11.06,11.06,0,0,1-3.26-.33,5.16,5.16,0,0,1,1.3-10c.7-.06,1.42,0,2.13,0h33Z"/></g></g></svg>